<svg xmlns="http://www.w3.org/2000/svg" width="20" height="20" viewBox="0 0 20 20" fill="none">
  <g clip-path="url(#clip0_1_239)">
    <path d="M10.1606 18.75C10.8908 18.75 11.4838 18.1883 11.4838 17.4988H12.8071C12.8071 18.8781 11.6195 20 10.1606 20C8.70167 20 7.51404 18.8781 7.51404 17.4988H8.8373C8.8373 18.1883 9.43029 18.75 10.1606 18.75ZM1.5023 13.0785C2.6585 12.0387 3.54261 10.9504 3.54261 7.26172C3.54261 4.15273 6.1639 1.61719 9.49893 1.31055V0.625C9.49893 0.279687 9.79501 0 10.1606 0C10.5261 0 10.8222 0.279687 10.8222 0.625V1.31094C14.1572 1.61758 16.7785 4.15273 16.7785 7.26172C16.7785 10.95 17.663 12.0387 18.8192 13.0785C19.3969 13.598 19.5793 14.3836 19.2844 15.0797C18.9834 15.7906 18.2589 16.25 17.4385 16.25H2.88263C2.06221 16.25 1.33772 15.7902 1.03668 15.0793C0.741842 14.3832 0.924618 13.598 1.5023 13.0785ZM2.88263 15H17.4385C18.0269 15 18.3209 14.3566 17.9066 13.984C16.4651 12.6875 15.4553 11.2363 15.4553 7.26211C15.4553 4.63008 13.087 2.5 10.1606 2.5C7.2345 2.5 4.86587 4.62969 4.86587 7.26172C4.86587 11.2207 3.86474 12.6797 2.41453 13.9836C1.99853 14.3582 2.29667 15 2.88263 15Z" fill="#C4C4C4"/>
  </g>
  <defs>
    <clipPath id="clip0_1_239">
      <rect width="18.5256" height="20" fill="white" transform="matrix(-1 0 0 1 19.4231 0)"/>
    </clipPath>
  </defs>
</svg>
