<svg width="0" height="0" class="hidden">
  <symbol xmlns="http://www.w3.org/2000/svg" fill="none" viewBox="0 0 20 16" id="small">
    <path d="M19.13 4.81219L10.8488 2.13469C10.2922 1.955 9.70813 1.955 9.15156 2.13469L0.870313 4.81219C0.341875 4.98313 0 5.44938 0 6C0 6.55063 0.341875 7.01688 0.87 7.18781L1.79844 7.48781C1.69531 7.68094 1.61906 7.88875 1.56938 8.10656C1.23531 8.26844 1 8.60375 1 9C1 9.39781 1.23656 9.735 1.57281 9.89594L1.00875 13.3916C0.958437 13.7038 1.13094 14 1.36312 14H2.63656C2.86875 14 3.04156 13.7038 2.99094 13.3916L2.42719 9.89594C2.76344 9.735 3 9.39781 3 9C3 8.66875 2.82844 8.38938 2.58031 8.20719C2.62687 8.06156 2.69906 7.93031 2.78562 7.80688L4.45656 8.34719L4 12C4 13.1047 6.68625 14 10 14C13.3138 14 16 13.1047 16 12L15.5434 8.34719L19.13 7.1875C19.6581 7.01688 20 6.55063 20 6C20 5.44938 19.6581 4.98313 19.13 4.81219ZM14.9838 11.9331C14.6475 12.2872 12.9388 13 10 13C7.06125 13 5.3525 12.2872 5.01625 11.9331L5.42531 8.66031L9.15156 9.865C9.23281 9.89125 9.95531 10.1534 10.8488 9.865L14.575 8.66031L14.9838 11.9331ZM18.8213 6.23688L10.54 8.91438C10.1866 9.02875 9.81344 9.02875 9.46 8.91438L3.97031 7.13938L10.0919 5.99125C10.3634 5.94063 10.5422 5.67938 10.4913 5.40781C10.4406 5.13594 10.1737 4.95813 9.90812 5.00875L3.54 6.2025C3.1525 6.275 2.80531 6.44156 2.50625 6.66594L1.17844 6.23656C0.933125 6.15688 0.945312 5.83844 1.17844 5.76313L9.45969 3.08563C9.93156 2.93313 10.3297 3.01781 10.5397 3.08563L18.8209 5.76313C19.0519 5.83781 19.0681 6.15688 18.8213 6.23688Z" fill="black"></path>
  </symbol>
  <symbol xmlns="http://www.w3.org/2000/svg" fill="none" viewBox="0 0 48 29" id="large">
    <path d="M45.912 6.67913L26.037 0.320068C24.7013 -0.106689 23.2995 -0.106689 21.9638 0.320068L2.08875 6.67913C0.8205 7.08511 0 8.19245 0 9.50019C0 10.8079 0.8205 11.9153 2.088 12.3212L4.31625 13.0337C4.06875 13.4924 3.88575 13.986 3.7665 14.5033C2.96475 14.8877 2.4 15.6841 2.4 16.6252C2.4 17.57 2.96775 18.3708 3.77475 18.753L2.421 27.0551C2.30025 27.7966 2.71425 28.5002 3.2715 28.5002H6.32775C6.885 28.5002 7.29975 27.7966 7.17825 27.0551L5.82525 18.753C6.63225 18.3708 7.2 17.57 7.2 16.6252C7.2 15.8385 6.78825 15.175 6.19275 14.7423C6.3045 14.3964 6.47775 14.0847 6.6855 13.7915L10.6958 15.0748L9.6 23.7502C9.6 26.3738 16.047 28.5002 24 28.5002C31.953 28.5002 38.4 26.3738 38.4 23.7502L37.3043 15.0748L45.912 12.3205C47.1795 11.9153 48 10.8079 48 9.50019C48 8.19245 47.1795 7.08511 45.912 6.67913ZM35.961 23.5914C35.154 24.4323 31.053 26.1252 24 26.1252C16.947 26.1252 12.846 24.4323 12.039 23.5914L13.0208 15.8184L21.9638 18.6796C22.1588 18.7419 23.8927 19.3646 26.037 18.6796L34.98 15.8184L35.961 23.5914ZM45.171 10.0628L25.296 16.4218C24.4478 16.6935 23.5522 16.6935 22.704 16.4218L9.52875 12.2062L24.2205 9.4794C24.8723 9.35917 25.3013 8.7387 25.179 8.09374C25.0575 7.44804 24.417 7.02573 23.7795 7.14597L8.496 9.98112C7.566 10.1533 6.73275 10.5489 6.015 11.0818L2.82825 10.062C2.2395 9.87276 2.26875 9.11647 2.82825 8.93761L22.7033 2.57854C23.8358 2.21636 24.7913 2.41749 25.2952 2.57854L45.1703 8.93761C45.7245 9.11499 45.7635 9.87276 45.171 10.0628Z" fill="#EE95C5"></path>
  </symbol>
</svg>
