<svg width="0" height="0" class="hidden">
  <symbol xmlns="http://www.w3.org/2000/svg" fill="none" viewBox="0 0 15 17" id="small">
    <path d="M8.84933 8.32402L6.43862 7.65332C6.03348 7.54043 5.74888 7.1752 5.74888 6.7668C5.74888 6.25879 6.17745 5.84375 6.70312 5.84375H8.20982C8.58482 5.84375 8.94308 5.96328 9.23437 6.1791C9.34152 6.25879 9.48884 6.24551 9.58259 6.15254L9.96094 5.7707C10.0748 5.65781 10.0614 5.47188 9.93415 5.37227C9.44531 4.98711 8.84263 4.77793 8.20647 4.77793H8.03571V3.4498C8.03571 3.30371 7.91518 3.18418 7.76786 3.18418H7.23214C7.08482 3.18418 6.96429 3.30371 6.96429 3.4498V4.77793H6.70312C5.58817 4.77793 4.67745 5.66777 4.67745 6.76348C4.67745 7.64668 5.28348 8.43027 6.14732 8.67266L8.55804 9.34336C8.96317 9.45625 9.24777 9.82148 9.24777 10.2299C9.24777 10.7379 8.8192 11.1529 8.29353 11.1529H6.78683C6.41183 11.1529 6.05357 11.0334 5.76228 10.8176C5.65513 10.7379 5.50781 10.7512 5.41406 10.8441L5.03571 11.226C4.92187 11.3389 4.93527 11.5248 5.0625 11.6244C5.55134 12.0096 6.15402 12.2188 6.79018 12.2188H6.96429V13.5469C6.96429 13.693 7.08482 13.8125 7.23214 13.8125H7.76786C7.91518 13.8125 8.03571 13.693 8.03571 13.5469V12.2188H8.29688C9.41183 12.2188 10.3225 11.3289 10.3225 10.2332C10.3192 9.35 9.71652 8.56641 8.84933 8.32402ZM13.3929 1.0625H1.60714C0.719866 1.0625 0 1.77637 0 2.65625V14.3438C0 15.2236 0.719866 15.9375 1.60714 15.9375H13.3929C14.2801 15.9375 15 15.2236 15 14.3438V2.65625C15 1.77637 14.2801 1.0625 13.3929 1.0625ZM13.9286 14.3438C13.9286 14.6359 13.6875 14.875 13.3929 14.875H1.60714C1.3125 14.875 1.07143 14.6359 1.07143 14.3438V2.65625C1.07143 2.36406 1.3125 2.125 1.60714 2.125H13.3929C13.6875 2.125 13.9286 2.36406 13.9286 2.65625V14.3438Z" fill="black"></path>
  </symbol>
  <symbol xmlns="http://www.w3.org/2000/svg" fill="none" viewBox="0 0 35 40" id="large">
    <path d="M20.6484 19.5859L15.0234 18.0078C14.0781 17.7422 13.4141 16.8828 13.4141 15.9219C13.4141 14.7266 14.4141 13.75 15.6406 13.75H19.1562C20.0312 13.75 20.8672 14.0312 21.5469 14.5391C21.7969 14.7266 22.1406 14.6953 22.3594 14.4766L23.2422 13.5781C23.5078 13.3125 23.4766 12.875 23.1797 12.6406C22.0391 11.7344 20.6328 11.2422 19.1484 11.2422H18.75V8.11719C18.75 7.77344 18.4688 7.49219 18.125 7.49219H16.875C16.5312 7.49219 16.25 7.77344 16.25 8.11719V11.2422H15.6406C13.0391 11.2422 10.9141 13.3359 10.9141 15.9141C10.9141 17.9922 12.3281 19.8359 14.3438 20.4062L19.9688 21.9844C20.9141 22.25 21.5781 23.1094 21.5781 24.0703C21.5781 25.2656 20.5781 26.2422 19.3516 26.2422H15.8359C14.9609 26.2422 14.125 25.9609 13.4453 25.4531C13.1953 25.2656 12.8516 25.2969 12.6328 25.5156L11.75 26.4141C11.4844 26.6797 11.5156 27.1172 11.8125 27.3516C12.9531 28.2578 14.3594 28.75 15.8438 28.75H16.25V31.875C16.25 32.2188 16.5312 32.5 16.875 32.5H18.125C18.4688 32.5 18.75 32.2188 18.75 31.875V28.75H19.3594C21.9609 28.75 24.0859 26.6562 24.0859 24.0781C24.0781 22 22.6719 20.1562 20.6484 19.5859ZM31.25 2.5H3.75C1.67969 2.5 0 4.17969 0 6.25V33.75C0 35.8203 1.67969 37.5 3.75 37.5H31.25C33.3203 37.5 35 35.8203 35 33.75V6.25C35 4.17969 33.3203 2.5 31.25 2.5ZM32.5 33.75C32.5 34.4375 31.9375 35 31.25 35H3.75C3.0625 35 2.5 34.4375 2.5 33.75V6.25C2.5 5.5625 3.0625 5 3.75 5H31.25C31.9375 5 32.5 5.5625 32.5 6.25V33.75Z" fill="#F6C762"></path>
  </symbol>
</svg>
