<svg xmlns="http://www.w3.org/2000/svg" width="22" height="19" viewBox="0 0 22 19" fill="none">
  <g clip-path="url(#clip0_1_110)">
    <path d="M21.0825 2.08777L19.5463 0.695801C19.0348 0.231934 18.3639 0 17.6931 0C17.0223 0 16.3515 0.231934 15.8395 0.69543L1.40814 13.772L0.88802 18.0107C0.822493 18.5443 1.2865 19 1.86273 19C1.89918 19 1.93562 18.9981 1.97289 18.9944L6.64739 18.5265L21.0829 5.44617C22.1063 4.51881 22.1063 3.01514 21.0825 2.08777ZM6.04577 17.3924L2.23582 17.775L2.6601 14.3175L13.4675 4.52475L16.8572 7.59629L6.04577 17.3924ZM20.1561 4.60676L17.7836 6.7565L14.3938 3.68496L16.7663 1.53521C17.0137 1.31107 17.3429 1.1875 17.6931 1.1875C18.0433 1.1875 18.3721 1.31107 18.6199 1.53521L20.1561 2.92719C20.6668 3.39031 20.6668 4.14363 20.1561 4.60676Z" fill="#FEAF00"/>
  </g>
  <defs>
    <clipPath id="clip0_1_110">
      <rect width="20.9685" height="19" fill="white" transform="translate(0.882812)"/>
    </clipPath>
  </defs>
</svg>
