<svg width="0" height="0" class="hidden">
  <symbol fill="none" xmlns="http://www.w3.org/2000/svg" viewBox="0 0 13 15" id="small">
    <g clip-path="url(#clip0_21_29)">
      <path d="M1.60938 0H11.2656C12.1545 0 12.875 0.62959 12.875 1.40625V15L6.4375 11.7188L0 15V1.40625C0 0.62959 0.720531 0 1.60938 0ZM1.07292 13.3678L6.4375 10.6334L11.8021 13.3678V1.40625C11.8021 1.14779 11.5614 0.9375 11.2656 0.9375H1.60938C1.31359 0.9375 1.07292 1.14779 1.07292 1.40625V13.3678Z" fill="black"></path>
    </g>
    <defs>
      <clipPath id="clip0_21_29">
        <rect width="12.875" height="15" fill="white" transform="matrix(-1 0 0 1 12.875 0)"></rect>
      </clipPath>
    </defs>
  </symbol>
  <symbol xmlns="http://www.w3.org/2000/svg" fill="none" viewBox="0 0 28 35" id="large">
    <g clip-path="url(#clip0_21_22)">
      <path d="M3.5 0H24.5C26.433 0 28 1.46904 28 3.28125V35L14 27.3438L0 35V3.28125C0 1.46904 1.56698 0 3.5 0ZM2.33333 31.1915L14 24.8113L25.6667 31.1915V3.28125C25.6667 2.67818 25.1433 2.1875 24.5 2.1875H3.5C2.85673 2.1875 2.33333 2.67818 2.33333 3.28125V31.1915Z" fill="#74C1ED"></path>
    </g>
    <defs>
      <clipPath id="clip0_21_22">
        <rect width="28" height="35" fill="white" transform="matrix(-1 0 0 1 28 0)"></rect>
      </clipPath>
    </defs>
  </symbol>
</svg>
