<svg xmlns="http://www.w3.org/2000/svg" width="17" height="14" viewBox="0 0 17 14" fill="none">
  <g clip-path="url(#clip0_1_244)">
    <path d="M16.1135 13.1687L12.2696 9.64141C12.2011 9.57852 12.1117 9.5457 12.0164 9.5457H11.7094C12.7315 8.53125 13.3573 7.17773 13.3573 5.6875C13.3573 2.5457 10.5831 0 7.15934 0C3.73559 0 0.961426 2.5457 0.961426 5.6875C0.961426 8.8293 3.73559 11.375 7.15934 11.375C8.78332 11.375 10.2583 10.8008 11.3638 9.86562V10.1445C11.3638 10.232 11.4025 10.3141 11.4681 10.377L15.312 13.9043C15.452 14.0328 15.6785 14.0328 15.8185 13.9043L16.1135 13.6336C16.2536 13.5051 16.2536 13.2973 16.1135 13.1687ZM7.15934 10.5C4.26003 10.5 1.91495 8.34805 1.91495 5.6875C1.91495 3.02695 4.26003 0.875 7.15934 0.875C10.0587 0.875 12.4037 3.02695 12.4037 5.6875C12.4037 8.34805 10.0587 10.5 7.15934 10.5Z" fill="#C4C4C4"/>
  </g>
  <defs>
    <clipPath id="clip0_1_244">
      <rect width="15.2564" height="14" fill="white" transform="translate(0.961426)"/>
    </clipPath>
  </defs>
</svg>
