<svg xmlns="http://www.w3.org/2000/svg" width="18" height="18" viewBox="0 0 18 18" fill="none">
  <g clip-path="url(#clip0_1_108)">
    <path
      d="M0.585636 2.25H4.68474L6.00906 0.675C6.18528 0.465419 6.41379 0.295313 6.67649 0.178154C6.93919 0.0609948 7.22887 0 7.52257 0L10.6757 0C10.9694 0 11.2591 0.0609948 11.5218 0.178154C11.7845 0.295313 12.013 0.465419 12.1892 0.675L13.5136 2.25H17.6127C17.6963 2.25 17.7765 2.27963 17.8356 2.33238C17.8948 2.38512 17.928 2.45666 17.928 2.53125V3.09375C17.928 3.16834 17.8948 3.23988 17.8356 3.29262C17.7765 3.34537 17.6963 3.375 17.6127 3.375H16.8677L15.5592 16.4637C15.5169 16.8833 15.3001 17.2737 14.9514 17.558C14.6028 17.8423 14.1475 17.9999 13.6752 18H4.52314C4.05076 17.9999 3.5955 17.8423 3.24687 17.558C2.89823 17.2737 2.68144 16.8833 2.63913 16.4637L1.33057 3.375H0.585636C0.50201 3.375 0.421808 3.34537 0.362675 3.29262C0.303541 3.23988 0.270321 3.16834 0.270321 3.09375V2.53125C0.270321 2.45666 0.303541 2.38512 0.362675 2.33238C0.421808 2.27963 0.50201 2.25 0.585636 2.25ZM11.1802 1.35C11.1213 1.28034 11.0451 1.22379 10.9575 1.18475C10.87 1.14572 10.7736 1.12527 10.6757 1.125H7.52257C7.42472 1.12527 7.32827 1.14572 7.24075 1.18475C7.15323 1.22379 7.07702 1.28034 7.01807 1.35L6.26131 2.25H11.937L11.1802 1.35ZM3.89645 16.3617C3.90943 16.5019 3.98113 16.6325 4.09727 16.7277C4.21341 16.8228 4.36546 16.8754 4.52314 16.875H13.6752C13.8328 16.8754 13.9849 16.8228 14.101 16.7277C14.2172 16.6325 14.2889 16.5019 14.3019 16.3617L15.6025 3.375H2.59577L3.89645 16.3617Z"
      fill="#FEAF00" />
  </g>
  <defs>
    <clipPath id="clip0_1_108">
      <rect width="17.6577" height="18" fill="white" transform="matrix(-1 0 0 1 17.928 0)" />
    </clipPath>
  </defs>
</svg>
